<svg width="34" height="34" viewBox="0 0 34 34" fill="none" xmlns="http://www.w3.org/2000/svg">
<path d="M17 4.25C9.95917 4.25 4.25 9.6475 4.25 16.2917C4.25 22.1567 8.72667 26.9167 14.1667 26.9167H16.2917C17.4675 26.9167 18.4167 27.8658 18.4167 29.0417C18.4167 30.2175 19.3658 31.1667 20.5417 31.1667C26.4067 31.1667 31.1667 26.4067 31.1667 20.5417C31.1667 12.325 24.82 4.25 17 4.25Z" stroke="black" style="stroke:black;stroke-opacity:1;" stroke-width="3" stroke-linecap="round" stroke-linejoin="round"/>
<path d="M11.3334 15.5833C12.1158 15.5833 12.7501 14.9491 12.7501 14.1667C12.7501 13.3843 12.1158 12.75 11.3334 12.75C10.551 12.75 9.91675 13.3843 9.91675 14.1667C9.91675 14.9491 10.551 15.5833 11.3334 15.5833Z" stroke="black" style="stroke:black;stroke-opacity:1;" stroke-width="3" stroke-linecap="round" stroke-linejoin="round"/>
<path d="M16.9999 11.3333C17.7823 11.3333 18.4166 10.6991 18.4166 9.91667C18.4166 9.13426 17.7823 8.5 16.9999 8.5C16.2175 8.5 15.5833 9.13426 15.5833 9.91667C15.5833 10.6991 16.2175 11.3333 16.9999 11.3333Z" stroke="black" style="stroke:black;stroke-opacity:1;" stroke-width="3" stroke-linecap="round" stroke-linejoin="round"/>
<path d="M22.6667 15.5833C23.4491 15.5833 24.0833 14.9491 24.0833 14.1667C24.0833 13.3843 23.4491 12.75 22.6667 12.75C21.8843 12.75 21.25 13.3843 21.25 14.1667C21.25 14.9491 21.8843 15.5833 22.6667 15.5833Z" stroke="black" style="stroke:black;stroke-opacity:1;" stroke-width="3" stroke-linecap="round" stroke-linejoin="round"/>
<path d="M12.7499 21.25C13.5323 21.25 14.1666 20.6157 14.1666 19.8333C14.1666 19.0509 13.5323 18.4166 12.7499 18.4166C11.9675 18.4166 11.3333 19.0509 11.3333 19.8333C11.3333 20.6157 11.9675 21.25 12.7499 21.25Z" stroke="black" style="stroke:black;stroke-opacity:1;" stroke-width="3" stroke-linecap="round" stroke-linejoin="round"/>
</svg>
