<svg width="36" height="33" viewBox="0 0 36 33" fill="none" xmlns="http://www.w3.org/2000/svg">
<path d="M12 4.125H7.5C6.70435 4.125 5.94129 4.41473 5.37868 4.93046C4.81607 5.44618 4.5 6.14565 4.5 6.875V11" stroke="#212121" style="stroke:#212121;stroke:color(display-p3 0.1294 0.1294 0.1294);stroke-opacity:1;" stroke-width="3" stroke-linecap="round" stroke-linejoin="round"/>
<path d="M24 4.125H28.5C29.2956 4.125 30.0587 4.41473 30.6213 4.93046C31.1839 5.44618 31.5 6.14565 31.5 6.875V11" stroke="#212121" style="stroke:#212121;stroke:color(display-p3 0.1294 0.1294 0.1294);stroke-opacity:1;" stroke-width="3" stroke-linecap="round" stroke-linejoin="round"/>
<path d="M31.5 22V26.125C31.5 26.8543 31.1839 27.5538 30.6213 28.0695C30.0587 28.5853 29.2956 28.875 28.5 28.875H24" stroke="#212121" style="stroke:#212121;stroke:color(display-p3 0.1294 0.1294 0.1294);stroke-opacity:1;" stroke-width="3" stroke-linecap="round" stroke-linejoin="round"/>
<path d="M12 28.875H7.5C6.70435 28.875 5.94129 28.5853 5.37868 28.0695C4.81607 27.5538 4.5 26.8543 4.5 26.125V22" stroke="#212121" style="stroke:#212121;stroke:color(display-p3 0.1294 0.1294 0.1294);stroke-opacity:1;" stroke-width="3" stroke-linecap="round" stroke-linejoin="round"/>
<path d="M22.5 11H13.5C12.6716 11 12 11.6156 12 12.375V20.625C12 21.3844 12.6716 22 13.5 22H22.5C23.3284 22 24 21.3844 24 20.625V12.375C24 11.6156 23.3284 11 22.5 11Z" stroke="#212121" style="stroke:#212121;stroke:color(display-p3 0.1294 0.1294 0.1294);stroke-opacity:1;" stroke-width="3" stroke-linecap="round" stroke-linejoin="round"/>
</svg>
