<svg width="25" height="25" viewBox="0 0 25 25" fill="none" xmlns="http://www.w3.org/2000/svg">
<g clip-path="url(#clip0_70_277)">
<path d="M16.6667 16.6667V17.7083C16.6667 18.2609 16.4472 18.7908 16.0565 19.1815C15.6658 19.5722 15.1359 19.7917 14.5834 19.7917H3.12502C2.57249 19.7917 2.04258 19.5722 1.65188 19.1815C1.26118 18.7908 1.04169 18.2609 1.04169 17.7083V7.29166C1.04169 6.73913 1.26118 6.20923 1.65188 5.81852C2.04258 5.42782 2.57249 5.20833 3.12502 5.20833H5.20835M11.1042 5.20833H14.5834C15.1359 5.20833 15.6658 5.42782 16.0565 5.81852C16.4472 6.20923 16.6667 6.73913 16.6667 7.29166V10.7708L17.7084 11.8125L23.9584 7.29166V17.7083M1.04169 1.04166L23.9584 23.9583" stroke="black" style="stroke:black;stroke-opacity:1;" stroke-width="2" stroke-linecap="round" stroke-linejoin="round"/>
</g>
<defs>
<clipPath id="clip0_70_277">
<rect width="25" height="25" fill="white" style="fill:white;fill-opacity:1;"/>
</clipPath>
</defs>
</svg>
